<svg version="1.1" xmlns="http://www.w3.org/2000/svg" xmlns:xlink="http://www.w3.org/1999/xlink" width="25" height="25" viewBox="0 0 25 25"><path id="Receive" d="M24.351,25.004 C22.545,24.998 20.740,25.001 18.935,25.001 C12.841,25.001 6.747,25.000 0.654,25.003 C0.368,25.003 0.119,24.967 -0.000,24.664 C-0.000,22.369 -0.000,20.074 -0.000,17.780 C0.070,17.673 0.147,17.571 0.209,17.460 C1.354,15.426 2.507,13.395 3.633,11.350 C3.843,10.968 4.094,10.827 4.521,10.839 C5.483,10.865 6.447,10.847 7.411,10.847 C7.630,10.846 7.833,10.916 7.866,11.143 C7.887,11.280 7.821,11.469 7.726,11.572 C7.650,11.655 7.472,11.668 7.339,11.670 C6.506,11.678 5.672,11.689 4.840,11.667 C4.527,11.659 4.354,11.743 4.196,12.031 C3.244,13.766 2.266,15.487 1.297,17.212 C1.247,17.301 1.202,17.392 1.134,17.522 C1.826,17.522 2.482,17.523 3.137,17.522 C4.951,17.522 6.765,17.521 8.579,17.521 C9.010,17.521 9.162,17.673 9.163,18.097 C9.163,18.297 9.157,18.497 9.165,18.697 C9.195,19.435 9.796,20.023 10.534,20.025 C11.992,20.029 13.450,20.035 14.908,20.022 C15.575,20.015 16.110,19.698 16.501,19.169 C16.610,19.023 16.636,18.803 16.665,18.611 C16.692,18.433 16.669,18.247 16.671,18.064 C16.675,17.680 16.823,17.525 17.207,17.524 C18.197,17.520 19.186,17.522 20.176,17.522 C21.390,17.522 22.605,17.522 23.868,17.522 C23.818,17.424 23.783,17.351 23.744,17.282 C22.737,15.488 21.726,13.696 20.726,11.899 C20.625,11.718 20.510,11.669 20.316,11.670 C19.153,11.678 17.990,11.676 16.827,11.670 C16.702,11.670 16.546,11.658 16.462,11.585 C16.365,11.502 16.275,11.339 16.288,11.222 C16.301,11.104 16.429,10.983 16.535,10.898 C16.599,10.847 16.716,10.849 16.809,10.849 C18.094,10.846 19.378,10.852 20.663,10.843 C20.961,10.841 21.145,10.963 21.287,11.217 C22.451,13.301 23.621,15.381 24.791,17.461 C24.853,17.572 24.930,17.674 25.000,17.780 C25.000,20.091 25.000,22.404 25.000,24.716 C24.845,24.950 24.620,25.005 24.351,25.004 zM24.152,18.368 C21.926,18.368 19.719,18.368 17.556,18.368 C17.489,18.706 17.490,19.048 17.353,19.321 C16.856,20.304 16.010,20.815 14.926,20.843 C13.444,20.881 11.959,20.856 10.476,20.853 C9.624,20.851 8.769,20.259 8.498,19.450 C8.382,19.104 8.350,18.730 8.279,18.368 C5.814,18.368 3.329,18.368 0.841,18.368 C0.841,20.306 0.841,22.223 0.841,24.161 C8.614,24.161 16.374,24.161 24.152,24.161 C24.152,22.214 24.152,20.290 24.152,18.368 zM16.382,8.372 C15.072,9.689 13.759,11.004 12.446,12.319 C12.196,12.570 11.977,12.578 11.726,12.328 C10.376,10.977 9.028,9.624 7.681,8.270 C7.476,8.063 7.461,7.819 7.629,7.648 C7.812,7.463 8.056,7.481 8.290,7.714 C9.298,8.719 10.304,9.727 11.309,10.736 C11.411,10.839 11.503,10.953 11.599,11.062 C11.623,11.052 11.647,11.042 11.671,11.031 C11.671,10.932 11.671,10.833 11.671,10.734 C11.671,7.363 11.673,3.993 11.666,0.622 C11.665,0.343 11.734,0.134 11.979,-0.004 C12.031,-0.004 12.083,-0.004 12.135,-0.004 C12.430,0.098 12.500,0.321 12.499,0.609 C12.494,3.954 12.496,7.299 12.496,10.644 C12.496,10.771 12.496,10.897 12.496,11.078 C12.605,10.978 12.674,10.918 12.738,10.854 C13.769,9.823 14.799,8.789 15.833,7.761 C15.928,7.667 16.051,7.567 16.173,7.548 C16.288,7.530 16.463,7.580 16.531,7.665 C16.608,7.761 16.633,7.937 16.607,8.063 C16.584,8.177 16.472,8.281 16.382,8.372 z" fill="#757575" /></svg>